<svg width="144" height="37" viewBox="0 0 444 108" fill="none" xmlns="http://www.w3.org/2000/svg">
<path d="M117.184 93.768C114.24 93.768 111.728 93.112 109.648 91.8C107.6 90.456 106.032 88.632 104.944 86.328C103.888 84.024 103.36 81.416 103.36 78.504V36.936C103.36 34.056 103.904 31.464 104.992 29.16C106.112 26.856 107.712 25.032 109.792 23.688C111.872 22.344 114.336 21.672 117.184 21.672C119.328 21.672 121.248 22.072 122.944 22.872C124.64 23.672 126.08 24.776 127.264 26.184C128.48 27.56 129.408 29.176 130.048 31.032C130.688 32.856 131.008 34.824 131.008 36.936V46.632H121.312V36.936C121.312 35.464 121.008 34.232 120.4 33.24C119.792 32.248 118.784 31.752 117.376 31.752C116.096 31.752 115.168 32.264 114.592 33.288C114.016 34.312 113.728 35.528 113.728 36.936V78.504C113.728 79.912 114.032 81.128 114.64 82.152C115.28 83.176 116.192 83.688 117.376 83.688C118.816 83.688 119.824 83.192 120.4 82.2C121.008 81.208 121.312 79.976 121.312 78.504V68.808H131.008V78.504C131.008 81.384 130.448 83.976 129.328 86.28C128.208 88.584 126.608 90.408 124.528 91.752C122.48 93.096 120.032 93.768 117.184 93.768ZM151.59 93.768C148.71 93.768 146.23 93.096 144.15 91.752C142.102 90.408 140.518 88.584 139.398 86.28C138.31 83.976 137.766 81.384 137.766 78.504V36.936C137.766 34.024 138.31 31.432 139.398 29.16C140.518 26.856 142.102 25.032 144.15 23.688C146.23 22.344 148.71 21.672 151.59 21.672C154.47 21.672 156.934 22.344 158.982 23.688C161.062 25.032 162.646 26.856 163.734 29.16C164.854 31.464 165.414 34.056 165.414 36.936V78.504C165.414 81.384 164.854 83.976 163.734 86.28C162.646 88.584 161.062 90.408 158.982 91.752C156.934 93.096 154.47 93.768 151.59 93.768ZM151.59 83.688C152.87 83.688 153.766 83.16 154.278 82.104C154.79 81.016 155.046 79.816 155.046 78.504V36.936C155.046 35.624 154.774 34.44 154.23 33.384C153.686 32.296 152.806 31.752 151.59 31.752C150.406 31.752 149.526 32.296 148.95 33.384C148.406 34.44 148.134 35.624 148.134 36.936V78.504C148.134 79.816 148.406 81.016 148.95 82.104C149.494 83.16 150.374 83.688 151.59 83.688ZM172.653 93V22.44H182.349L191.949 59.208L192.812 62.472H193.389V22.44H202.893V93H194.156L183.597 56.232L182.733 52.968H182.157V93H172.653ZM210.528 93V22.44H220.224L229.824 59.208L230.688 62.472H231.264V22.44H240.768V93H232.031L221.472 56.232L220.608 52.968H220.032V93H210.528ZM248.403 93V22.44H272.115V33.096H258.771V52.104H268.371V62.472H258.771V82.344H272.115V93H248.403ZM293.153 93.768C290.209 93.768 287.697 93.112 285.617 91.8C283.569 90.456 282.001 88.632 280.913 86.328C279.857 84.024 279.329 81.416 279.329 78.504V36.936C279.329 34.056 279.873 31.464 280.961 29.16C282.081 26.856 283.681 25.032 285.761 23.688C287.841 22.344 290.305 21.672 293.153 21.672C295.297 21.672 297.217 22.072 298.913 22.872C300.609 23.672 302.049 24.776 303.233 26.184C304.449 27.56 305.377 29.176 306.017 31.032C306.657 32.856 306.977 34.824 306.977 36.936V46.632H297.281V36.936C297.281 35.464 296.977 34.232 296.369 33.24C295.761 32.248 294.753 31.752 293.345 31.752C292.065 31.752 291.137 32.264 290.561 33.288C289.985 34.312 289.697 35.528 289.697 36.936V78.504C289.697 79.912 290.001 81.128 290.609 82.152C291.249 83.176 292.161 83.688 293.345 83.688C294.785 83.688 295.793 83.192 296.369 82.2C296.977 81.208 297.281 79.976 297.281 78.504V68.808H306.977V78.504C306.977 81.384 306.417 83.976 305.297 86.28C304.177 88.584 302.577 90.408 300.497 91.752C298.449 93.096 296.001 93.768 293.153 93.768ZM321.127 93V33.096H311.335V22.44H341.287V33.096H331.495V93H321.127ZM346.09 93V22.44H356.458V93H346.09ZM364.184 93V22.44H388.856V33.096H374.552V51.624H384.152V62.28H374.552V93H364.184ZM401.219 93V62.952L390.659 22.44H400.835L405.923 45L406.259 48.072H406.547L406.883 45L411.971 22.44H422.147L411.587 62.952V93H401.219ZM426.121 93V82.344H436.201V93H426.121Z" fill="#9498EF"/>
<rect y="8" width="95" height="94" rx="20" fill="url(#paint0_linear_3_8)"/>
<rect y="8" width="95" height="94" rx="20" fill="url(#paint1_linear_3_8)" fill-opacity="0.2"/>
<path d="M80.7249 55.1449C78.8422 55.1146 77.2132 56.5381 76.418 58.6094L61.6839 54.485C61.5831 51.1994 59.563 48.5546 57.0291 48.5138C56.1496 48.4996 55.3326 48.8208 54.6176 49.3592L49.2998 42.1713C49.7293 41.247 49.9965 40.1827 50.0104 39.0269C50.0518 35.5748 47.9579 32.7446 45.3312 32.7022C43.6601 32.6753 42.1821 33.792 41.3129 35.4934L35.7845 32.9702C35.7958 32.8266 35.8211 32.6927 35.8229 32.549C35.8643 29.097 33.7704 26.2667 31.1437 26.2244C28.517 26.182 26.356 28.9437 26.3145 32.3957C26.3139 32.4488 26.3252 32.499 26.3245 32.5521L18.4734 35.3627C17.6683 33.5062 16.1739 32.2323 14.4291 32.2042C11.8024 32.1618 9.64136 34.9235 9.59991 38.3755C9.55846 41.8276 11.6524 44.6578 14.2791 44.7002C16.9057 44.7425 19.0668 41.9808 19.1083 38.5288C19.1089 38.4757 19.0976 38.4255 19.0982 38.3724L26.9493 35.5649C27.7545 37.4183 29.2489 38.6922 30.9937 38.7204C32.6648 38.7473 34.1427 37.6306 35.012 35.9292L40.5404 38.4524C40.5315 38.596 40.5037 38.7299 40.502 38.8736C40.4606 42.3256 42.5545 45.1559 45.1812 45.1982C46.0607 45.2124 46.8777 44.8912 47.5926 44.3528L52.9105 51.5408C52.481 52.4619 52.2138 53.5293 52.1999 54.6852C52.1682 57.3218 53.3892 59.5881 55.1349 60.5317L53.74 73.5389C51.4009 73.898 49.5608 76.4618 49.5227 79.6389C49.4812 83.0909 51.5752 85.9212 54.2018 85.9635C56.0037 85.9925 57.5671 84.6866 58.3963 82.7596L68.4661 86.2434C68.4487 89.6708 70.5311 92.4759 73.1435 92.518C75.7702 92.5603 77.9312 89.7986 77.9727 86.3466C77.9981 84.2317 77.217 82.3568 76.0064 81.2062L80.0812 67.5674C80.245 67.5919 80.4061 67.6382 80.5748 67.6409C83.2015 67.6833 85.3626 64.9216 85.404 61.4696C85.4455 58.0175 83.3516 55.1873 80.7249 55.1449ZM14.3166 41.5762C13.0068 41.5551 11.9563 40.1352 11.977 38.4139C11.9977 36.6925 13.0818 35.3071 14.3916 35.3282C15.7014 35.3493 16.7518 36.7692 16.7312 38.4905C16.7105 40.2118 15.6263 41.5973 14.3166 41.5762ZM31.0312 35.5964C29.7214 35.5752 28.6709 34.1554 28.6916 32.434C28.7123 30.7127 29.7964 29.3272 31.1062 29.3484C32.416 29.3695 33.4665 30.7893 33.4458 32.5107C33.4251 34.232 32.341 35.6175 31.0312 35.5964ZM42.8791 38.9119C42.8998 37.1906 43.9839 35.8051 45.2937 35.8262C46.6035 35.8473 47.6539 37.2672 47.6333 38.9885C47.6126 40.7099 46.5284 42.0953 45.2187 42.0742C43.9089 42.0531 42.8584 40.6332 42.8791 38.9119ZM56.9916 51.6378C58.3013 51.6589 59.3518 53.0788 59.3311 54.8001C59.3105 56.5214 58.2263 57.9069 56.9165 57.8858C55.6068 57.8647 54.5563 56.4448 54.577 54.7235C54.5976 53.0022 55.6818 51.6167 56.9916 51.6378ZM54.2394 82.8395C52.9296 82.8184 51.8791 81.3985 51.8998 79.6772C51.9204 77.9559 53.0046 76.5704 54.3144 76.5915C55.6242 76.6126 56.6746 78.0325 56.654 79.7538C56.6333 81.4751 55.5491 82.8606 54.2394 82.8395ZM73.181 89.394C71.8712 89.3729 70.8208 87.953 70.8414 86.2317C70.8621 84.5104 71.9463 83.1249 73.256 83.146C74.5658 83.1671 75.6163 84.587 75.5956 86.3083C75.5749 88.0296 74.4908 89.4151 73.181 89.394ZM73.7872 80.0956C73.6234 80.0711 73.4623 80.0247 73.2935 80.022C71.4917 79.993 69.9283 81.2988 69.0991 83.2259L59.0293 79.7421C59.044 77.127 57.8322 74.8859 56.0984 73.9456L57.4933 60.9385C59.113 60.6896 60.4815 59.3868 61.1883 57.5453L75.92 61.6698C75.9819 63.6393 76.7219 65.3729 77.8644 66.4568L73.7872 80.0956ZM80.6124 64.5169C79.3026 64.4958 78.2521 63.0759 78.2728 61.3546C78.2935 59.6333 79.3776 58.2478 80.6874 58.2689C81.9972 58.29 83.0476 59.7099 83.027 61.4312C83.0063 63.1526 81.9221 64.538 80.6124 64.5169Z" fill="white"/>
<defs>
<linearGradient id="paint0_linear_3_8" x1="92" y1="54.7432" x2="3" y2="54.7432" gradientUnits="userSpaceOnUse">
<stop stop-color="#E0E1EF"/>
<stop offset="1" stop-color="#9498EF"/>
</linearGradient>
<linearGradient id="paint1_linear_3_8" x1="95" y1="57.8251" x2="47.4997" y2="58.3118" gradientUnits="userSpaceOnUse">
<stop offset="1" stop-color="#6A17D3"/>
</linearGradient>
</defs>
</svg>
